<svg xmlns="http://www.w3.org/2000/svg" width="17.951" height="11.486" viewBox="0 0 17.951 11.486">
  <path id="behance" d="M16.416,12.848a2.32,2.32,0,0,0,.542,1.586,2.207,2.207,0,0,0,2.57.15,1.494,1.494,0,0,0,.593-.726H22.05a3.739,3.739,0,0,1-1.427,2.111,4.173,4.173,0,0,1-2.32.634,4.615,4.615,0,0,1-1.669-.309,3.622,3.622,0,0,1-1.294-.835,3.981,3.981,0,0,1-.835-1.36,5.249,5.249,0,0,1,0-3.447,4.031,4.031,0,0,1,.835-1.369,3.872,3.872,0,0,1,1.294-.926A4.056,4.056,0,0,1,18.3,8.024a3.756,3.756,0,0,1,1.769.334,3.639,3.639,0,0,1,1.252,1.085,4.5,4.5,0,0,1,.7,1.552,5.842,5.842,0,0,1,.15,1.819H16.416Zm3.063-2.7a1.619,1.619,0,0,0-1.252-.451,1.886,1.886,0,0,0-.835.184,1.669,1.669,0,0,0-.551.451,1.619,1.619,0,0,0-.292.576,2.9,2.9,0,0,0-.1.542h3.58A2.3,2.3,0,0,0,19.479,10.144Zm-3.514-4.29h4.473V6.981H15.966Zm-3.672,9.764a3.672,3.672,0,0,1-1.26.584,5.375,5.375,0,0,1-1.444.184H4.24V5.12H9.448a6.426,6.426,0,0,1,1.444.142A3.063,3.063,0,0,1,12,5.729a2.17,2.17,0,0,1,.718.835,3.121,3.121,0,0,1,.25,1.319A2.5,2.5,0,0,1,12.586,9.3a2.779,2.779,0,0,1-1.127.935,2.662,2.662,0,0,1,1.519,1.052A3.163,3.163,0,0,1,13.47,13.1a3.163,3.163,0,0,1-.325,1.477,2.7,2.7,0,0,1-.851,1.043ZM10.483,7.682a1.043,1.043,0,0,0-.376-.392,1.569,1.569,0,0,0-.534-.2,4.59,4.59,0,0,0-.634-.042H6.677V9.685h2.5a1.669,1.669,0,0,0,1.068-.317,1.193,1.193,0,0,0,.376-1.01A1.444,1.444,0,0,0,10.483,7.682Zm.1,4.014a2,2,0,0,0-1.269-.376H6.677v3.113h2.6a3.013,3.013,0,0,0,.684-.075,1.669,1.669,0,0,0,.568-.159,1.16,1.16,0,0,0,.392-.451,1.544,1.544,0,0,0,.142-.734A1.477,1.477,0,0,0,10.583,11.7Z" transform="translate(-4.24 -5.119)" fill="#deebee"/>
</svg>
