<svg xmlns="http://www.w3.org/2000/svg" width="12.726" height="12.749" viewBox="0 0 12.726 12.749">
  <path id="call-icon" d="M14.667,11.5v1.829a1.22,1.22,0,0,1-1.329,1.219,12.059,12.059,0,0,1-5.261-1.871A11.885,11.885,0,0,1,4.42,9.023,12.065,12.065,0,0,1,2.548,3.738,1.219,1.219,0,0,1,3.761,2.409H5.59A1.219,1.219,0,0,1,6.81,3.457,7.8,7.8,0,0,0,7.236,5.17a1.22,1.22,0,0,1-.274,1.287l-.774.774a9.755,9.755,0,0,0,3.658,3.658l.774-.774a1.218,1.218,0,0,1,1.286-.274,7.866,7.866,0,0,0,1.713.427A1.22,1.22,0,0,1,14.667,11.5Z" transform="translate(-2.243 -2.109)" fill="none" stroke="#000" stroke-linecap="round" stroke-linejoin="round" stroke-width="0.6"/>
</svg>
