<svg xmlns="http://www.w3.org/2000/svg" width="11.896" height="11.897" viewBox="0 0 11.896 11.897">
  <path id="dribble" d="M12.949,15.9A5.949,5.949,0,1,1,18.9,9.949,5.957,5.957,0,0,1,12.949,15.9Zm5.019-5.131a7.435,7.435,0,0,0-3.168-.216,17.984,17.984,0,0,1,.967,3.621,5.442,5.442,0,0,0,2.238-3.406Zm-3.034,3.867a20.977,20.977,0,0,0-1.086-3.852c-.015,0-.022.007-.037.007a6.962,6.962,0,0,0-3.986,3.175,5.029,5.029,0,0,0,3.123,1.041,5.84,5.84,0,0,0,2.008-.372ZM9.171,13.354A8.03,8.03,0,0,1,13.3,10a2.052,2.052,0,0,1,.2-.059c-.126-.29-.268-.58-.409-.863A18.605,18.605,0,0,1,7.87,9.8v.156a4.925,4.925,0,0,0,1.286,3.4l.015.015Zm-1.2-4.439a19.947,19.947,0,0,0,4.7-.617,32.841,32.841,0,0,0-1.881-2.937A5.17,5.17,0,0,0,7.967,8.915Zm3.785-3.874a20.88,20.88,0,0,1,1.859,2.974A5.679,5.679,0,0,0,16.28,6.179a4.831,4.831,0,0,0-3.331-1.3,3.518,3.518,0,0,0-1.19.164v0Zm5.123,1.7a6.778,6.778,0,0,1-2.841,2,7.587,7.587,0,0,0,.372.736.528.528,0,0,1,.074.223,13.048,13.048,0,0,1,3.569.164A5.3,5.3,0,0,0,16.89,6.744Z" transform="translate(-7 -4)" fill="#deebee"/>
</svg>
