<svg xmlns="http://www.w3.org/2000/svg" width="24.857" height="24.241" viewBox="0 0 24.857 24.241">
  <path id="git-nav" d="M14.428,2.247A12.428,12.428,0,0,0,10.5,26.464c.621.109.854-.264.854-.59,0-.3-.016-1.274-.016-2.315-3.122.575-3.93-.761-4.179-1.46a4.519,4.519,0,0,0-1.274-1.755c-.435-.233-1.056-.808-.016-.823a2.487,2.487,0,0,1,1.911,1.274A2.656,2.656,0,0,0,11.4,21.82a2.614,2.614,0,0,1,.792-1.662c-2.765-.311-5.654-1.383-5.654-6.136a4.836,4.836,0,0,1,1.274-3.34,4.466,4.466,0,0,1,.124-3.293s1.041-.326,3.418,1.274a11.716,11.716,0,0,1,6.214,0c2.377-1.616,3.418-1.274,3.418-1.274a4.465,4.465,0,0,1,.124,3.293,4.808,4.808,0,0,1,1.274,3.34c0,4.769-2.9,5.825-5.67,6.136a2.943,2.943,0,0,1,.839,2.3c0,1.662-.016,3-.016,3.417,0,.326.233.715.854.59A12.434,12.434,0,0,0,14.428,2.247Z" transform="translate(-1.999 -2.247)" fill="#deebee"/>
</svg>
