<svg xmlns="http://www.w3.org/2000/svg" width="12.43" height="12.121" viewBox="0 0 12.43 12.121">
  <path id="github" d="M8.213,2.247A6.214,6.214,0,0,0,6.248,14.355c.311.054.427-.132.427-.3,0-.148-.008-.637-.008-1.157-1.561.287-1.965-.381-2.089-.73a2.259,2.259,0,0,0-.637-.878c-.217-.117-.528-.4-.008-.412a1.243,1.243,0,0,1,.955.637,1.328,1.328,0,0,0,1.81.513,1.307,1.307,0,0,1,.4-.831c-1.383-.155-2.827-.691-2.827-3.068A2.418,2.418,0,0,1,4.9,6.464a2.233,2.233,0,0,1,.062-1.647s.52-.163,1.709.637a5.858,5.858,0,0,1,3.107,0c1.188-.808,1.709-.637,1.709-.637a2.233,2.233,0,0,1,.062,1.647,2.4,2.4,0,0,1,.637,1.67c0,2.384-1.452,2.913-2.835,3.068a1.471,1.471,0,0,1,.419,1.15c0,.831-.008,1.5-.008,1.709,0,.163.117.357.427.3A6.217,6.217,0,0,0,8.213,2.247Z" transform="translate(-1.998 -2.247)" fill="#deebee"/>
</svg>
