<svg xmlns="http://www.w3.org/2000/svg" width="25.101" height="26.422" viewBox="0 0 25.101 26.422">
  <path id="home" d="M8.765,24.8v-4.04a1.874,1.874,0,0,1,1.881-1.867h3.8a1.888,1.888,0,0,1,1.33.547,1.86,1.86,0,0,1,.551,1.32V24.8a1.6,1.6,0,0,0,.47,1.145,1.626,1.626,0,0,0,1.15.475h2.591a4.572,4.572,0,0,0,3.228-1.32A4.5,4.5,0,0,0,25.1,21.9V10.393A3.266,3.266,0,0,0,23.918,7.88L15.106.893A4.092,4.092,0,0,0,9.889.987L1.278,7.88A3.268,3.268,0,0,0,0,10.393v11.5a4.549,4.549,0,0,0,4.566,4.533H7.1A1.627,1.627,0,0,0,8.73,24.813Z" fill="#deebee"/>
</svg>
