<svg id="instagram" xmlns="http://www.w3.org/2000/svg" width="11.898" height="11.897" viewBox="0 0 11.898 11.897">
  <g id="Group_878" data-name="Group 878">
    <path id="Path_1044" data-name="Path 1044" d="M30.949,26.072c1.588,0,1.777.006,2.4.035a3.29,3.29,0,0,1,1.1.2,1.969,1.969,0,0,1,1.129,1.129,3.294,3.294,0,0,1,.2,1.1c.029.627.035.815.035,2.4s-.006,1.777-.035,2.4a3.294,3.294,0,0,1-.2,1.1,1.969,1.969,0,0,1-1.129,1.129,3.289,3.289,0,0,1-1.1.2c-.627.029-.815.035-2.4.035s-1.777-.006-2.4-.035a3.29,3.29,0,0,1-1.1-.2,1.969,1.969,0,0,1-1.129-1.129,3.29,3.29,0,0,1-.2-1.1c-.029-.627-.035-.815-.035-2.4s.006-1.777.035-2.4a3.29,3.29,0,0,1,.2-1.1,1.97,1.97,0,0,1,1.129-1.129,3.29,3.29,0,0,1,1.1-.2c.627-.029.815-.035,2.4-.035m0-1.072c-1.616,0-1.818.007-2.453.036a4.367,4.367,0,0,0-1.444.276,3.042,3.042,0,0,0-1.74,1.74,4.367,4.367,0,0,0-.276,1.444c-.029.634-.036.837-.036,2.453s.007,1.818.036,2.453a4.367,4.367,0,0,0,.276,1.444,3.042,3.042,0,0,0,1.74,1.74,4.367,4.367,0,0,0,1.444.276c.634.029.837.036,2.453.036s1.818-.007,2.453-.036a4.367,4.367,0,0,0,1.444-.276,3.042,3.042,0,0,0,1.74-1.74,4.367,4.367,0,0,0,.276-1.444c.029-.634.036-.837.036-2.453s-.007-1.818-.036-2.453a4.367,4.367,0,0,0-.276-1.444,3.042,3.042,0,0,0-1.74-1.74,4.367,4.367,0,0,0-1.444-.276c-.634-.029-.837-.036-2.453-.036" transform="translate(-25 -25)" fill="#deebee"/>
    <path id="Path_1045" data-name="Path 1045" d="M48.731,45.676a3.055,3.055,0,1,0,3.055,3.055,3.055,3.055,0,0,0-3.055-3.055m0,5.038a1.983,1.983,0,1,1,1.983-1.983,1.983,1.983,0,0,1-1.983,1.983" transform="translate(-42.782 -42.782)" fill="#deebee"/>
    <path id="Path_1046" data-name="Path 1046" d="M86.515,40.427a.714.714,0,1,1-.714-.714.714.714,0,0,1,.714.714" transform="translate(-76.677 -37.654)" fill="#deebee"/>
  </g>
</svg>
