<svg xmlns="http://www.w3.org/2000/svg" width="24.857" height="24.857" viewBox="0 0 24.857 24.857">
  <path id="insta-nav" d="M21.065,6.3h0a1.491,1.491,0,1,0,1.491,1.491A1.491,1.491,0,0,0,21.065,6.3Zm5.717,3.008a9.433,9.433,0,0,0-.572-3.02,6.14,6.14,0,0,0-1.442-2.2,5.841,5.841,0,0,0-2.2-1.429,9.073,9.073,0,0,0-3.02-.584C18.232,2,17.809,2,14.428,2s-3.8,0-5.121.075a9.073,9.073,0,0,0-3.02.584,5.941,5.941,0,0,0-2.2,1.429,5.841,5.841,0,0,0-1.429,2.2,9.073,9.073,0,0,0-.584,3.02C2,10.625,2,11.048,2,14.428s0,3.8.075,5.12a9.073,9.073,0,0,0,.584,3.02,5.841,5.841,0,0,0,1.429,2.2,5.941,5.941,0,0,0,2.2,1.429,9.073,9.073,0,0,0,3.02.584c1.317.075,1.74.075,5.121.075s3.8,0,5.121-.075a9.073,9.073,0,0,0,3.02-.584,5.841,5.841,0,0,0,2.2-1.429,6.028,6.028,0,0,0,1.442-2.2,9.433,9.433,0,0,0,.572-3.02c0-1.317.075-1.74.075-5.12S26.857,10.625,26.782,9.308ZM24.545,19.4a6.972,6.972,0,0,1-.423,2.312,3.8,3.8,0,0,1-.932,1.429,3.965,3.965,0,0,1-1.429.932,6.972,6.972,0,0,1-2.312.423c-1.243.062-1.7.075-4.971.075s-3.729,0-4.971-.075A7.121,7.121,0,0,1,7.1,24.123a4.064,4.064,0,0,1-1.367-.932,3.729,3.729,0,0,1-.92-1.429,6.885,6.885,0,0,1-.5-2.361c0-1.243-.075-1.7-.075-4.971s0-3.729.075-4.971A6.885,6.885,0,0,1,4.747,7.1a3.729,3.729,0,0,1,.982-1.367A3.9,3.9,0,0,1,7.1,4.734a7.122,7.122,0,0,1,2.361-.423c1.243,0,1.7-.075,4.971-.075s3.729,0,4.971.075a6.972,6.972,0,0,1,2.312.423,3.8,3.8,0,0,1,1.479.994A3.8,3.8,0,0,1,24.123,7.1a6.972,6.972,0,0,1,.423,2.361c.062,1.243.075,1.7.075,4.971S24.607,18.157,24.545,19.4ZM14.428,8.053a6.363,6.363,0,1,0,4.52,1.859,6.376,6.376,0,0,0-4.52-1.859Zm0,10.514a4.139,4.139,0,1,1,4.139-4.139,4.139,4.139,0,0,1-4.139,4.139Z" transform="translate(-2 -2)" fill="#deebee"/>
</svg>
