<svg xmlns="http://www.w3.org/2000/svg" width="12.17" height="11.897" viewBox="0 0 12.17 11.897">
  <path id="linkdin" d="M16.583,14.9V10.585c0-1.041-.38-1.785-1.293-1.785a1.513,1.513,0,0,0-1.369.967,1.616,1.616,0,0,0-.076.669V14.9H11.259s.076-7.287,0-8.031h2.586V7.982h0a2.478,2.478,0,0,1,2.282-1.338c1.749,0,3.042,1.115,3.042,3.644V14.9ZM8.445,5.751h0A1.325,1.325,0,0,1,7,4.413,1.383,1.383,0,0,1,8.445,3,1.383,1.383,0,0,1,9.89,4.413C9.966,5.156,9.358,5.751,8.445,5.751ZM9.738,14.9H7.152V6.867H9.738Z" transform="translate(-7 -3)" fill="#deebee"/>
</svg>
