<svg xmlns="http://www.w3.org/2000/svg" width="23.195" height="22.677" viewBox="0 0 23.195 22.677">
  <path id="linkdin-nav" d="M25.266,25.677v-8.22c0-1.984-.725-3.4-2.464-3.4A2.883,2.883,0,0,0,20.192,15.9a3.08,3.08,0,0,0-.145,1.276v8.5H15.118s.145-13.889,0-15.307h4.929V12.5h0A4.722,4.722,0,0,1,24.4,9.945c3.334,0,5.8,2.126,5.8,6.945v8.787ZM9.754,8.244h0A2.526,2.526,0,0,1,7,5.693,2.636,2.636,0,0,1,9.754,3a2.636,2.636,0,0,1,2.754,2.693C12.654,7.11,11.494,8.244,9.754,8.244Zm2.464,17.433H7.29V10.37h4.929Z" transform="translate(-7 -3)" fill="#deebee"/>
</svg>
