<svg xmlns="http://www.w3.org/2000/svg" width="11.691" height="8.563" viewBox="0 0 11.691 8.563">
  <path id="mail-icon" d="M10.778,146.5H.913a.913.913,0,0,0-.913.913v6.736a.913.913,0,0,0,.913.913h9.865a.913.913,0,0,0,.913-.913v-6.736A.913.913,0,0,0,10.778,146.5Zm-9.865.571h9.865a.343.343,0,0,1,.343.343v.692l-5.275,2.88-5.275-2.88v-.692A.343.343,0,0,1,.913,147.071Zm9.865,7.421H.913a.343.343,0,0,1-.343-.342v-5.394l5.137,2.8a.288.288,0,0,0,.275,0l5.137-2.8v5.394A.343.343,0,0,1,10.778,154.492Z" transform="translate(0 -146.5)"/>
</svg>
