<svg xmlns="http://www.w3.org/2000/svg" width="24.396" height="22.788" viewBox="0 0 24.396 22.788">
  <path id="mail-nav" d="M3.65,8.112a3.327,3.327,0,0,1,.369-.275l8.758-4.865a3.42,3.42,0,0,1,3.343,0l8.758,4.865a3.448,3.448,0,0,1,.369.275l-9.443,5.7a2.778,2.778,0,0,1-2.677.019Zm13.09,7.326a4.785,4.785,0,0,1-2.3.6,4.661,4.661,0,0,1-2.249-.58L2.507,9.616a3.4,3.4,0,0,0-.258,1.229V21.883a3.443,3.443,0,0,0,3.44,3.44H23.2a3.443,3.443,0,0,0,3.44-3.44V10.845a3.383,3.383,0,0,0-.258-1.229L16.739,15.44Z" transform="translate(-2.249 -2.535)" fill="#deebee"/>
</svg>
