<?xml version="1.0" encoding="UTF-8"?><svg id="b" xmlns="http://www.w3.org/2000/svg" xmlns:xlink="http://www.w3.org/1999/xlink" viewBox="0 0 76.94 54.62"><defs><style>.f{fill:url(#d);stroke-width:0px;}</style><radialGradient id="d" cx="26.25" cy="15.6" fx="-30.37" fy="46.53" r="64.52" gradientTransform="translate(2.13 28.95) rotate(-46.73) scale(1 .54)" gradientUnits="userSpaceOnUse"><stop offset=".22" stop-color="#deebee"/><stop offset=".62" stop-color="#dbc1fe"/><stop offset=".67" stop-color="#c8b0f3"/><stop offset=".76" stop-color="#9786d7"/><stop offset=".9" stop-color="#4a43ac"/><stop offset=".98" stop-color="#181890"/></radialGradient></defs><g id="c"><path id="e" class="f" d="M17.21,53.91c.67-.07,1.32-.17,1.96-.3,5.67-1.08,10.6-4.56,13.51-9.56.13-.23.26-.46.38-.69,1.47-2.84,2.23-5.99,2.22-9.19,0-3.41-.02-6.82.03-10.23.01-.54.21-1.06.57-1.46,5.22-5.14,10.47-10.25,15.75-15.32.47-.4,1.07-.63,1.69-.65,2.66-.07,5.33-.03,7.99-.03.32,0,.64.05,1.27.11-7.21,7.03-21.55,17.64-21.47,20.93s14.16,13.72,21.27,20.61c-.43.04-.76.1-1.08.1-2.66,0-5.33.04-7.99-.04-.66-.04-1.28-.3-1.77-.73-1.94-1.78-3.79-3.64-5.67-5.48-2.14-2.1-5.56-6.51-6.51-6.41-.85.11-.84,4-1.34,5.85-.22.55-.06,1.18.39,1.56,3.49,3.36,6.98,6.73,10.41,10.14.62.65,1.5,1,2.4.95,8.14-.03,16.29-.03,24.43-.03.36.03.72,0,1.08-.06.31-.09.17-.3.17-.3l-27.4-26.58L76.71.73c.84-1.6-17.55-.07-26.04-.02-.58.05-1.13.29-1.55.7-4.28,4.11-8.52,8.26-12.78,12.39-.27.26-.57.49-1.01.86-.03-.48-.05-.7-.05-.91,0-4-.02-8,0-12.01,0-.73-.16-1.07-1-1.07-4.7.03-9.4.02-14.1,0h-.4s-3.82,0-3.82,0c-1.79,1.02,2.98,5.73,3.21,5.6.27.17.58.26.9.25h.15c2.59-.08,5.18.01,7.76-.05,1.01-.02,1.37.23,1.37,1.29-.04,8.89-.01,17.79-.03,26.68,0,1.54-.26,3.08-.77,4.53-.09.26-.19.52-.3.78-.74,1.76-1.84,3.34-3.23,4.65-.19.17-.38.34-.57.51-1.13.95-2.42,1.7-3.8,2.22-.48.18-.98.34-1.48.47-.18.05-.36.09-.55.13-2.78.58-5.74.34-8.62.45-.07,0-.14-.14-.39-.39.33-.2.64-.42.94-.67.93-.9,1.85-1.81,2.77-2.72l.53-.53c1.58-1.57,3.16-3.14,4.77-4.68l.55-.53c1.11-1.06,2.24-2.1,3.38-3.13.24-.22.47-.44.69-.65.18-.19.35-.37.52-.56,1.45-1.56,2.09-3.71,1.72-5.82-.1-1.23-.11-2.47-.03-3.7l-5.73,5.58-.55.53-4.07,3.96-.55.53-3.88,3.77-.59.57-4.43,4.31-.57.55c-3.2,3.12-6.25,9.06-4.65,10.01"/></g></svg>