<svg xmlns="http://www.w3.org/2000/svg" xmlns:xlink="http://www.w3.org/1999/xlink" width="458.457" height="313.297" viewBox="0 0 458.457 313.297">
  <defs>
    <style>
      .cls-1 {
        fill: url(#linear-gradient);
      }

      .cls-2 {
        fill: url(#linear-gradient-2);
      }

      .cls-3, .cls-4 {
        stroke: none;
      }

      .cls-4 {
        fill: #dbc1fe;
      }

      .cls-5 {
        filter: url(#Path_1684);
      }

      .cls-6 {
        filter: url(#Path_1683);
      }
    </style>
    <linearGradient id="linear-gradient" x1="0.207" y1="0.924" x2="0.842" y2="0.045" gradientUnits="objectBoundingBox">
      <stop offset="0" stop-color="#dbc1fe"/>
      <stop offset="1" stop-color="#181890"/>
    </linearGradient>
    <filter id="Path_1683" x="0" y="0" width="458.457" height="313.297" filterUnits="userSpaceOnUse">
      <feOffset dy="3" input="SourceAlpha"/>
      <feGaussianBlur stdDeviation="3" result="blur"/>
      <feFlood flood-color="#dbc1fe"/>
      <feComposite operator="in" in2="blur"/>
      <feComposite in="SourceGraphic"/>
    </filter>
    <linearGradient id="linear-gradient-2" x1="0.793" y1="0.924" x2="0.158" y2="0.045" xlink:href="#linear-gradient"/>
    <filter id="Path_1684" x="22.855" y="19.004" width="411.266" height="291.567" filterUnits="userSpaceOnUse">
      <feOffset dy="1" input="SourceAlpha"/>
      <feGaussianBlur stdDeviation="3" result="blur-2"/>
      <feFlood flood-color="#dbc1fe"/>
      <feComposite operator="in" in2="blur-2"/>
      <feComposite in="SourceGraphic"/>
    </filter>
  </defs>
  <g id="pfp-BG" transform="translate(18339.227 7531.053)">
    <g class="cls-6" transform="matrix(1, 0, 0, 1, -18339.23, -7531.05)">
      <g id="Path_1683-2" data-name="Path 1683" class="cls-1" transform="translate(9 6)">
        <path class="cls-3" d="M 57.37022399902344 294.7969665527344 C 32.59268951416016 294.7969665527344 16.04669570922852 294.7871704101562 13.47192478179932 294.7855224609375 C 9.267719268798828 283.1451110839844 6.038867473602295 271.0431518554688 3.873611450195312 258.8093566894531 C 1.635055899620056 246.1616363525391 0.5000003576278687 233.1811370849609 0.5000003576278687 220.2284240722656 C 0.5000003576278687 205.3198089599609 2.001944780349731 190.4207000732422 4.964111328125 175.9449768066406 C 7.850944995880127 161.8373565673828 12.15850067138672 147.960693359375 17.76716613769531 134.7003631591797 C 23.27400016784668 121.6806945800781 30.09005546569824 109.1231384277344 38.0258903503418 97.37653350830078 C 45.88639068603516 85.74141693115234 54.91372299194336 74.80025482177734 64.85700225830078 64.85697174072266 C 74.80027770996094 54.9136962890625 85.74144744873047 45.88642120361328 97.37655639648438 38.02592086791992 C 109.1231689453125 30.09008598327637 121.6807250976562 23.2740306854248 134.7003936767578 17.76719665527344 C 147.9607238769531 12.15853023529053 161.8374481201172 7.850975036621094 175.9450073242188 4.964141845703125 C 190.4207763671875 2.001975059509277 205.3198852539062 0.5000306367874146 220.2285003662109 0.5000306367874146 C 235.1371154785156 0.5000306367874146 250.0362854003906 2.001975059509277 264.5119934082031 4.964141845703125 C 278.6195983886719 7.850975036621094 292.4962768554688 12.15853023529053 305.7566223144531 17.76719665527344 C 318.7763366699219 23.2740306854248 331.3338928222656 30.09008598327637 343.0804443359375 38.02592086791992 C 354.7155456542969 45.88642120361328 365.6567077636719 54.9136962890625 375.6000671386719 64.85697174072266 C 385.5433349609375 74.80025482177734 394.5706176757812 85.74141693115234 402.4311218261719 97.37653350830078 C 410.366943359375 109.1231384277344 417.1830139160156 121.6806411743164 422.6898193359375 134.7003631591797 C 428.2984924316406 147.960693359375 432.6060485839844 161.8373565673828 435.4928894042969 175.9449768066406 C 438.4550476074219 190.4207000732422 439.9570007324219 205.3198089599609 439.9570007324219 220.2284240722656 C 439.9570007324219 245.2014312744141 435.8122253417969 269.667236328125 427.6382751464844 292.9483337402344 C 426.9737243652344 293.0639953613281 424.3350830078125 293.2587890625 414.9255065917969 293.4653015136719 C 407.4617309570312 293.6290283203125 396.6610107421875 293.7805786132812 382.8232727050781 293.9155883789062 C 358.44482421875 294.1534729003906 324.0160522460938 294.3472595214844 280.4932250976562 294.4915161132812 C 200.3172149658203 294.7572937011719 106.2854995727539 294.7969665527344 57.37022399902344 294.7969665527344 Z"/>
        <path class="cls-4" d="M 220.2285003662109 0.999969482421875 C 205.3535003662109 0.999969482421875 190.4881134033203 2.49853515625 176.0452880859375 5.45391845703125 C 161.9700012207031 8.334136962890625 148.1251220703125 12.63186645507812 134.8951721191406 18.22763061523438 C 121.9052124023438 23.721923828125 109.3762817382812 30.52243041992188 97.65643310546875 38.44015502929688 C 86.0477294921875 46.28286743164062 75.13134765625 55.28974914550781 65.21054077148438 65.21052551269531 C 55.28976440429688 75.13130187988281 46.28289794921875 86.04769897460938 38.44015502929688 97.65641784667969 C 30.52243041992188 109.3762512207031 23.72195434570312 121.9051361083984 18.2276611328125 134.8951416015625 C 12.63189697265625 148.1250305175781 8.33416748046875 161.9699249267578 5.453948974609375 176.0451965332031 C 2.498565673828125 190.488037109375 1 205.3534240722656 1 220.2284240722656 C 1 233.1520385742188 2.1324462890625 246.1031951904297 4.365936279296875 258.7221984863281 C 6.5057373046875 270.8121032714844 9.686920166015625 282.7736511230469 13.82333374023438 294.2857055664062 C 17.30828857421875 294.287841796875 33.52975463867188 294.2969055175781 57.371826171875 294.2969055175781 C 106.0947265625 294.2969055175781 199.7834930419922 294.2575378417969 279.8246459960938 293.9936828613281 C 323.2581787109375 293.8504638671875 357.6813354492188 293.658203125 382.137939453125 293.4222106933594 C 396.0174560546875 293.2882080078125 406.8886108398438 293.1379089355469 414.4494934082031 292.9754638671875 C 423.4002685546875 292.7831726074219 426.3237609863281 292.6000366210938 427.2679138183594 292.4932861328125 C 435.3558044433594 269.3523254394531 439.4570007324219 245.0409851074219 439.4570007324219 220.2284240722656 C 439.4570007324219 205.3534240722656 437.9584350585938 190.488037109375 435.0030517578125 176.0451965332031 C 432.1228332519531 161.9699249267578 427.8251037597656 148.1250305175781 422.2293395996094 134.8951416015625 C 416.7350463867188 121.9051361083984 409.9345703125 109.3762512207031 402.016845703125 97.65641784667969 C 394.1741027832031 86.04769897460938 385.167236328125 75.13130187988281 375.2464599609375 65.21052551269531 C 365.32568359375 55.28974914550781 354.4092712402344 46.28286743164062 342.800537109375 38.44015502929688 C 331.0807189941406 30.52243041992188 318.5517883300781 23.721923828125 305.5618286132812 18.22763061523438 C 292.3319091796875 12.63186645507812 278.4869995117188 8.334136962890625 264.4117431640625 5.45391845703125 C 249.9688873291016 2.49853515625 235.1035003662109 0.999969482421875 220.2285003662109 0.999969482421875 M 220.2285003662109 -3.0517578125e-05 C 341.8573303222656 -3.0517578125e-05 440.4570007324219 98.59963989257812 440.4570007324219 220.2284240722656 C 440.4570007324219 245.89208984375 436.0671691894531 270.5304870605469 428.0306091308594 293.3399047851562 C 427.2452087402344 295.5690307617188 13.12115478515625 295.2852478027344 13.12112426757812 295.2852478027344 C 4.6429443359375 271.9308776855469 0 246.6218566894531 0 220.2284240722656 C 0 98.59963989257812 98.59967041015625 -3.0517578125e-05 220.2285003662109 -3.0517578125e-05 Z"/>
      </g>
    </g>
    <g class="cls-5" transform="matrix(1, 0, 0, 1, -18339.23, -7531.05)">
      <path id="Path_1684-2" data-name="Path 1684" class="cls-2" d="M196.633,0C88.035,0,0,91.344,0,204.022a210.48,210.48,0,0,0,11.095,67.731c.7,2.065,370.455,1.8,370.455,1.8a210.374,210.374,0,0,0,11.715-69.534C393.265,91.344,305.23,0,196.633,0Z" transform="translate(31.86 27)"/>
    </g>
  </g>
</svg>
